<?xml version="1.0" encoding="utf-8"?><!-- Uploaded to: SVG Repo, www.svgrepo.com, Generator: SVG Repo Mixer Tools -->
<svg fill="#000000" width="800px" height="800px" viewBox="0 0 24 24" id="date-performance" data-name="Flat Color" xmlns="http://www.w3.org/2000/svg" class="icon flat-color"><path id="primary" d="M21,7H3A1,1,0,0,0,2,8V20a2,2,0,0,0,2,2H20a2,2,0,0,0,2-2V8A1,1,0,0,0,21,7Z" style="fill: rgb(0, 0, 0);"></path><path id="secondary" d="M22,6V9H2V6A2,2,0,0,1,4,4H20A2,2,0,0,1,22,6ZM17.82,16.52a1,1,0,0,0-1.22-.72A1,1,0,0,0,15.88,17,4.13,4.13,0,0,1,16,18a1,1,0,0,0,2,0A6.12,6.12,0,0,0,17.82,16.52ZM13,13a1,1,0,0,0-1-1,6,6,0,0,0-6,6,1,1,0,0,0,2,0,4,4,0,0,1,4-4A1,1,0,0,0,13,13Zm3.78.62a1,1,0,0,0-1.56-1.24l-3.31,4.13A1.5,1.5,0,1,0,13.5,18a1.94,1.94,0,0,0,0-.24Z" style="fill: rgb(44, 169, 188);"></path><path id="primary-2" data-name="primary" d="M16,7a1,1,0,0,1-1-1V3a1,1,0,0,1,2,0V6A1,1,0,0,1,16,7ZM9,6V3A1,1,0,0,0,7,3V6A1,1,0,0,0,9,6Z" style="fill: rgb(0, 0, 0);"></path></svg>